<svg xmlns="http://www.w3.org/2000/svg" viewBox="0 0 188.32 50.76"><defs><style>.cls-1{fill:#231f20;stroke:#fff;stroke-miterlimit:10;stroke-width:0.38px;}</style></defs><title>Asset 1</title><g id="Layer_2" data-name="Layer 2"><g id="Layer_1-2" data-name="Layer 1"><path class="cls-1" d="M35.19,31.41a17.5,17.5,0,0,1-35,0C.19,21.74,17.69,1,17.69.21S35.19,21.74,35.19,31.41Z"/><path class="cls-1" d="M85.67,33.07a17.51,17.51,0,0,1-35,0c0-9.67,17.5-30.46,17.5-31.21S85.67,23.4,85.67,33.07Z"/><path class="cls-1" d="M136.9,33.07a17.51,17.51,0,0,1-35,0c0-9.67,17.51-30.46,17.51-31.21S136.9,23.4,136.9,33.07Z"/><path class="cls-1" d="M188.13,31.41a17.5,17.5,0,0,1-35,0c0-9.67,17.5-30.46,17.5-31.2S188.13,21.74,188.13,31.41Z"/></g></g></svg>